<mxfile host="app.diagrams.net" modified="2024-07-02T10:04:37.038Z" agent="Mozilla/5.0 (Windows NT 10.0; Win64; x64) AppleWebKit/537.36 (KHTML, like Gecko) Chrome/126.0.0.0 Safari/537.36" etag="-7lClH1FK6ojWC3PP5Hb" version="24.6.4" type="device">
  <diagram name="第 1 页" id="zczOrRKy6di3i2s_IpKk">
    <mxGraphModel dx="1434" dy="738" grid="1" gridSize="10" guides="1" tooltips="1" connect="1" arrows="1" fold="1" page="1" pageScale="1" pageWidth="827" pageHeight="1169" math="0" shadow="0">
      <root>
        <mxCell id="0" />
        <mxCell id="1" parent="0" />
        <mxCell id="s06xL98dV1rDsHi4GvTL-3" value="" style="edgeStyle=orthogonalEdgeStyle;rounded=0;orthogonalLoop=1;jettySize=auto;html=1;" edge="1" parent="1" source="s06xL98dV1rDsHi4GvTL-1" target="s06xL98dV1rDsHi4GvTL-2">
          <mxGeometry relative="1" as="geometry" />
        </mxCell>
        <mxCell id="s06xL98dV1rDsHi4GvTL-1" value="数据模型识别" style="ellipse;whiteSpace=wrap;html=1;" vertex="1" parent="1">
          <mxGeometry x="60" y="320" width="120" height="80" as="geometry" />
        </mxCell>
        <mxCell id="s06xL98dV1rDsHi4GvTL-5" value="" style="edgeStyle=orthogonalEdgeStyle;rounded=0;orthogonalLoop=1;jettySize=auto;html=1;" edge="1" parent="1" source="s06xL98dV1rDsHi4GvTL-2" target="s06xL98dV1rDsHi4GvTL-4">
          <mxGeometry relative="1" as="geometry" />
        </mxCell>
        <mxCell id="s06xL98dV1rDsHi4GvTL-2" value="创建流处理" style="whiteSpace=wrap;html=1;" vertex="1" parent="1">
          <mxGeometry x="260" y="330" width="120" height="60" as="geometry" />
        </mxCell>
        <mxCell id="s06xL98dV1rDsHi4GvTL-7" value="" style="edgeStyle=orthogonalEdgeStyle;rounded=0;orthogonalLoop=1;jettySize=auto;html=1;" edge="1" parent="1" source="s06xL98dV1rDsHi4GvTL-4" target="s06xL98dV1rDsHi4GvTL-6">
          <mxGeometry relative="1" as="geometry" />
        </mxCell>
        <mxCell id="s06xL98dV1rDsHi4GvTL-4" value="读取相应模型PKL文件" style="shape=cylinder3;whiteSpace=wrap;html=1;boundedLbl=1;backgroundOutline=1;size=15;" vertex="1" parent="1">
          <mxGeometry x="450" y="320" width="60" height="80" as="geometry" />
        </mxCell>
        <mxCell id="s06xL98dV1rDsHi4GvTL-6" value="通过子模型信息生成实时数据的识别结果" style="whiteSpace=wrap;html=1;" vertex="1" parent="1">
          <mxGeometry x="560" y="330" width="120" height="60" as="geometry" />
        </mxCell>
      </root>
    </mxGraphModel>
  </diagram>
</mxfile>
